<svg width="91" height="85" viewBox="0 0 91 85" fill="none" xmlns="http://www.w3.org/2000/svg">
<ellipse cx="44.9759" cy="48.7956" rx="35.0582" ry="35.154" fill="#FF1111"/>
<ellipse cx="87.0992" cy="17.0521" rx="3.40116" ry="3.41046" fill="#FF1111"/>
<ellipse cx="5.99394" cy="5.24686" rx="5.49419" ry="5.24686" fill="#FF1111"/>
<ellipse cx="3.11604" cy="71.6201" rx="2.61628" ry="2.88577" fill="#FF1111"/>
<ellipse cx="80.8196" cy="83.9507" rx="1.30814" ry="1.04937" fill="#FF1111"/>
<path fill-rule="evenodd" clip-rule="evenodd" d="M45.0074 36.9219C43.5443 36.9219 42.3582 38.108 42.3582 39.5711V50.2102C42.3582 51.6734 43.5443 52.8595 45.0074 52.8595C46.4705 52.8595 47.6567 51.6734 47.6567 50.2102V39.5711C47.6567 38.108 46.4705 36.9219 45.0074 36.9219ZM42.3582 58.1719C42.3582 56.7049 43.5443 55.5156 45.0074 55.5156C46.4705 55.5156 47.6567 56.7049 47.6567 58.1719C47.6567 59.6389 46.4705 60.8282 45.0074 60.8282C43.5443 60.8282 42.3582 59.6389 42.3582 58.1719Z" fill="white"/>
<ellipse cx="59.889" cy="54.3059" rx="1.30814" ry="1.31171" fill="white"/>
<ellipse cx="25.6162" cy="39.8751" rx="2.09302" ry="2.09874" fill="white"/>
<ellipse cx="56.226" cy="28.5946" rx="0.784884" ry="0.787029" fill="white"/>
<ellipse cx="34.5121" cy="65.5855" rx="1.04651" ry="1.04937" fill="white"/>
<ellipse cx="46.023" cy="40.4016" rx="0.523256" ry="0.524686" fill="white"/>
</svg>
