<svg width="91" height="85" viewBox="0 0 91 85" fill="none" xmlns="http://www.w3.org/2000/svg">
<ellipse cx="44.9756" cy="48.796" rx="35.0582" ry="35.154" fill="#61BD79"/>
<ellipse cx="87.0989" cy="17.0525" rx="3.40116" ry="3.41046" fill="#61BD79"/>
<ellipse cx="5.9937" cy="5.24686" rx="5.49419" ry="5.24686" fill="#61BD79"/>
<ellipse cx="3.11579" cy="71.6201" rx="2.61628" ry="2.88577" fill="#61BD79"/>
<ellipse cx="80.8194" cy="83.9507" rx="1.30814" ry="1.04937" fill="#61BD79"/>
<path d="M42.3717 58.3021C41.6282 58.3021 40.8848 57.9826 40.4599 57.3436L34.5121 49.6754C33.6624 48.6104 33.8748 47.1194 34.9369 46.2674C35.999 45.4154 37.486 45.6284 38.3357 46.6934L42.3717 51.912L51.2935 40.3033C52.1432 39.2383 53.6302 39.0253 54.6923 39.8773C55.7544 40.7293 55.9669 42.2203 55.1172 43.2853L44.2835 57.3436C43.7525 57.8761 43.1152 58.3021 42.3717 58.3021Z" fill="white"/>
<ellipse cx="59.8887" cy="54.3054" rx="1.30814" ry="1.31171" fill="white"/>
<ellipse cx="25.616" cy="39.8751" rx="2.09302" ry="2.09874" fill="white"/>
<ellipse cx="56.2258" cy="28.5942" rx="0.784884" ry="0.787029" fill="white"/>
<ellipse cx="34.5118" cy="65.585" rx="1.04651" ry="1.04937" fill="white"/>
<ellipse cx="46.0228" cy="40.4011" rx="0.523256" ry="0.524686" fill="white"/>
</svg>
